<?xml version="1.0" encoding="UTF-8" standalone="no"?>
<svg
   xmlns:dc="http://purl.org/dc/elements/1.1/"
   xmlns:cc="http://creativecommons.org/ns#"
   xmlns:rdf="http://www.w3.org/1999/02/22-rdf-syntax-ns#"
   xmlns:svg="http://www.w3.org/2000/svg"
   xmlns="http://www.w3.org/2000/svg"
   xmlns:sodipodi="http://sodipodi.sourceforge.net/DTD/sodipodi-0.dtd"
   xmlns:inkscape="http://www.inkscape.org/namespaces/inkscape"
   version="1.1"
   data-icon="terminal"
   data-container-transform="translate(0 1)"
   viewBox="0 0 1052.3622 744.09449"
   x="0px"
   y="0px"
   id="svg2"
   inkscape:version="0.92.2 (5c3e80d, 2017-08-06)"
   sodipodi:docname="Banner_verde.svg"
   width="297mm"
   height="210mm">
  <metadata
     id="metadata14">
    <rdf:RDF>
      <cc:Work
         rdf:about="">
        <dc:format>image/svg+xml</dc:format>
        <dc:type
           rdf:resource="http://purl.org/dc/dcmitype/StillImage" />
        <dc:title />
      </cc:Work>
    </rdf:RDF>
  </metadata>
  <defs
     id="defs12">
    <filter
       inkscape:collect="always"
       style="color-interpolation-filters:sRGB"
       id="filter6237"
       x="-0.012013751"
       width="1.0240275"
       y="-0.01198628"
       height="1.0239726">
      <feGaussianBlur
         inkscape:collect="always"
         stdDeviation="0.48756134"
         id="feGaussianBlur6239" />
    </filter>
  </defs>
  <sodipodi:namedview
     pagecolor="#000000"
     bordercolor="#666666"
     borderopacity="1"
     objecttolerance="10"
     gridtolerance="10"
     guidetolerance="10"
     inkscape:pageopacity="0"
     inkscape:pageshadow="2"
     inkscape:window-width="1920"
     inkscape:window-height="1013"
     id="namedview10"
     showgrid="false"
     inkscape:zoom="2.085965"
     inkscape:cx="-39.074031"
     inkscape:cy="350.22636"
     inkscape:window-x="-9"
     inkscape:window-y="-9"
     inkscape:window-maximized="1"
     inkscape:current-layer="g6243"
     units="mm" />
  <text
     xml:space="preserve"
     style="font-style:normal;font-weight:normal;line-height:0%;font-family:sans-serif;letter-spacing:0px;word-spacing:0px;fill:#000000;fill-opacity:1;stroke:none;stroke-width:1px;stroke-linecap:butt;stroke-linejoin:miter;stroke-opacity:1"
     x="-17.415255"
     y="724.56061"
     id="text4150"><tspan
       sodipodi:role="line"
       id="tspan4152"
       x="-17.415255"
       y="724.56061"
       style="font-size:25px;line-height:1.25"> </tspan></text>
  <g
     id="g4158"
     transform="translate(0.11173575,724.09449)">
    <g
       id="g4173"
       transform="matrix(45.587151,0,0,45.587151,414.82958,-776.91456)"
       inkscape:export-xdpi="90"
       inkscape:export-ydpi="90">
      <g
         id="g4146"
         transform="matrix(0.84204655,0,0,0.84204655,-0.77586528,5.4322588)" />
      <g
         id="g4156"
         inkscape:export-xdpi="90.32"
         inkscape:export-ydpi="90.32">
        <rect
           style="fill:#000000;fill-opacity:1;stroke:none;stroke-width:0.1;stroke-linecap:round;stroke-linejoin:bevel;stroke-miterlimit:4;stroke-dasharray:none;stroke-opacity:1"
           id="rect4144"
           width="21.858751"
           height="6.6117826"
           x="-8.4892187"
           y="6.0140004" />
        <rect
           style="fill:#b2df82;fill-opacity:1;fill-rule:evenodd;stroke:#b2df82;stroke-width:0.93823338px;stroke-linecap:butt;stroke-linejoin:miter;stroke-opacity:1"
           id="rect3342"
           width="2.575774"
           height="2.1359644"
           x="-6.7127776"
           y="8.2519093" />
        <path
           d="m -7.0151003,7.8717905 c -0.04137,0 -0.064745,0.017994 -0.064745,0.038886 l 0,2.8184228 c 0,0.02069 0.023375,0.03889 0.064745,0.03889 l 3.206279,0 c 0.020689,0 0.038886,-0.02338 0.038886,-0.06475 l 0,-2.792565 c 0,-0.020689 -0.018205,-0.038886 -0.038886,-0.038886 l -3.206279,0 z"
           id="path4"
           inkscape:connector-curvature="0"
           sodipodi:nodetypes="cssssssscc" />
        <flowRoot
           xml:space="preserve"
           id="flowRoot4151"
           style="font-style:normal;font-weight:normal;line-height:0.01%;font-family:sans-serif;letter-spacing:0px;word-spacing:0px;fill:#b2df82;fill-opacity:1;stroke:#b2df82;stroke-width:1.19033873;stroke-linecap:butt;stroke-linejoin:miter;stroke-miterlimit:4;stroke-dasharray:none;stroke-opacity:1"
           transform="matrix(0.07070026,0,0,0.07070026,-14.930226,-15.589688)"><flowRegion
             id="flowRegion4153"><rect
               id="rect4155"
               width="80.538261"
               height="80.538261"
               x="115.05466"
               y="333.73285"
               style="fill:#b2df82;fill-opacity:1;stroke:#b2df82;stroke-width:1.19033873;stroke-miterlimit:4;stroke-dasharray:none;stroke-opacity:1" /></flowRegion><flowPara
             id="flowPara4157"
             style="font-size:25px;line-height:1.25">#_</flowPara></flowRoot>        <text
           id="text4154"
           y="10.329337"
           x="-2.8886874"
           style="font-style:normal;font-weight:normal;line-height:0%;font-family:sans-serif;letter-spacing:-0.14px;word-spacing:0px;fill:#b2df82;fill-opacity:1;stroke:#b2df82;stroke-width:0;stroke-linecap:butt;stroke-linejoin:miter;stroke-miterlimit:4;stroke-dasharray:none;stroke-opacity:0"
           xml:space="preserve"><tspan
             style="font-style:normal;font-variant:normal;font-weight:normal;font-stretch:normal;font-size:3.42765808px;line-height:1.25;font-family:Ubuntu;-inkscape-font-specification:Ubuntu;letter-spacing:-0.14px;fill:#b2df82;fill-opacity:1;stroke:#b2df82;stroke-width:0;stroke-miterlimit:4;stroke-dasharray:none;stroke-opacity:0"
             y="10.329337"
             x="-2.8886874"
             id="tspan4156"
             sodipodi:role="line">Freejolitos</tspan></text>
      </g>
      <g
         transform="matrix(0.05858677,0,0,0.05858677,-15.366338,7.1881832)"
         id="g6243">
        <path
           inkscape:connector-curvature="0"
           style="fill:#000000;stroke:#00ff00;stroke-opacity:1;filter:url(#filter6237)"
           id="path2"
           d="M 98.334,28.896 C 98.694,21.589 96.098,14.161 90.499,8.594 80.012,-1.818 63.066,-1.768 52.652,8.718 c -4.513,4.542 -7.053,10.297 -7.637,16.207 -1.069,4.739 -3.41,9.243 -7.082,12.942 -3.675,3.698 -8.165,6.069 -12.891,7.17 -5.908,0.624 -11.645,3.201 -16.162,7.743 -10.414,10.487 -10.358,27.432 0.128,37.845 5.612,5.576 13.072,8.12 20.393,7.702 l -0.046,0.116 C 44.457,97.846 62.78,90.896 76.978,76.604 91.177,62.311 98.012,43.936 98.507,28.829 Z M 55.924,28.279 C 51.183,51.698 30.424,56.126 25.398,56.84 25.228,56.892 25.049,57 24.863,57 c -0.029,0 -0.058,0 -0.086,0 -1.984,0 -2.143,-1.846 -2.148,-1.923 -0.05,-0.656 0.284,-1.99 1.906,-2.198 3.829,-0.489 23.148,-4.032 27.47,-25.38 0.219,-1.083 1.276,-1.788 2.356,-1.573 1.082,0.22 1.783,1.27 1.563,2.353 z" />
        <path
           id="path2-0"
           d="M 98.334,28.896 C 98.694,21.589 96.098,14.161 90.499,8.5939986 80.012,-1.8180004 63.066,-1.7680004 52.652,8.7179986 48.139,13.26 45.599,19.015 45.014997,24.925 c -1.069,4.739 -3.41,9.243 -7.082,12.942 -3.675,3.698 -8.165,6.069 -12.891,7.17 -5.908,0.624 -11.645,3.201 -16.1620002,7.743 -10.414,10.487 -10.358,27.432 0.128,37.844998 5.6120002,5.57601 13.0720002,8.12001 20.3930002,7.70201 l -0.046,0.116 C 44.456997,97.846008 62.78,90.895998 76.978,76.604 91.177,62.311 98.012,43.936 98.507,28.829 Z M 55.924,28.279 C 51.183,51.698 30.423997,56.126 25.397997,56.84 c -0.17,0.052 -0.349,0.16 -0.535,0.16 -0.029,0 -0.058,0 -0.086,0 -1.984,0 -2.143,-1.846 -2.148,-1.923 -0.05,-0.656 0.284,-1.99 1.906,-2.198 3.829,-0.489 23.148003,-4.032 27.470003,-25.38 0.219,-1.083 1.276,-1.788 2.356,-1.573 1.082,0.22 1.783,1.27 1.563,2.353 z"
           style="fill:#000000"
           inkscape:connector-curvature="0" />
      </g>
    </g>
  </g>
</svg>
