<?xml version="1.0" encoding="UTF-8" standalone="no"?>
<svg
   xmlns:dc="http://purl.org/dc/elements/1.1/"
   xmlns:cc="http://creativecommons.org/ns#"
   xmlns:rdf="http://www.w3.org/1999/02/22-rdf-syntax-ns#"
   xmlns:svg="http://www.w3.org/2000/svg"
   xmlns="http://www.w3.org/2000/svg"
   xmlns:sodipodi="http://sodipodi.sourceforge.net/DTD/sodipodi-0.dtd"
   xmlns:inkscape="http://www.inkscape.org/namespaces/inkscape"
   version="1.1"
   x="0px"
   y="0px"
   viewBox="0 0 1052.3622 744.09449"
   enable-background="new 0 0 100 60.5"
   xml:space="preserve"
   id="svg4171"
   inkscape:version="0.91 r13725"
   sodipodi:docname="Bean.svg"
   width="297mm"
   height="210mm"><metadata
     id="metadata4183"><rdf:RDF><cc:Work
         rdf:about=""><dc:format>image/svg+xml</dc:format><dc:type
           rdf:resource="http://purl.org/dc/dcmitype/StillImage" /><dc:title></dc:title></cc:Work></rdf:RDF></metadata><defs
     id="defs4181" /><sodipodi:namedview
     pagecolor="#000000"
     bordercolor="#666666"
     borderopacity="1"
     objecttolerance="10"
     gridtolerance="10"
     guidetolerance="10"
     inkscape:pageopacity="0"
     inkscape:pageshadow="2"
     inkscape:window-width="1920"
     inkscape:window-height="1027"
     id="namedview4179"
     showgrid="false"
     units="mm"
     inkscape:zoom="0.78016529"
     inkscape:cx="671.93828"
     inkscape:cy="327.88981"
     inkscape:window-x="-8"
     inkscape:window-y="-8"
     inkscape:window-maximized="1"
     inkscape:current-layer="svg4171" /><g
     id="g4762"
     transform="translate(59.528591,70.251537)"
     inkscape:export-filename="C:\Users\ma131\Dropbox\Freejolitos\bean.png"
     inkscape:export-xdpi="75.389999"
     inkscape:export-ydpi="75.389999"><rect
       y="6.9016643"
       x="171.75847"
       height="589.78809"
       width="589.78809"
       id="rect4748"
       style="fill:#000000;fill-opacity:1;stroke:#ffffff;stroke-width:7.09600019;stroke-linecap:round;stroke-linejoin:bevel;stroke-miterlimit:4;stroke-dasharray:none;stroke-opacity:1" /><g
       transform="matrix(1.0109858,0,0,1.0109858,5.3773293,9.6518878)"
       id="g4756"><path
         d="m 259.17669,111.28749 c -16.59384,35.15922 -32.89194,83.35528 -9.29026,150.71325 21.47847,62.22216 59.30275,115.2106 81.07916,138.96423 0,0 70.6619,85.18687 139.69663,113.38687 69.03474,28.2001 117.28104,24.5973 163.30714,-25.2765 46.0261,-49.87378 50.76886,-98.81108 24.35141,-142.86089 C 632.39717,301.81898 551.41247,262.85316 526.5255,227.29711 501.14469,192.0867 502.18196,186.21029 489.19599,151.8893 476.21002,117.5683 424.36184,50.85108 383.12811,46.60246 342.38823,42.0082 283.62291,61.06711 259.17669,111.28749 Z m 214.56099,81.58814 c 3.30866,-1.58007 9.13578,-2.7156 25.33183,25.67969 10.96199,18.81499 31.15864,31.90207 47.05896,47.26052 12.49309,12.59294 15.55436,22.22255 11.15914,27.50623 -0.64202,1.18513 -6.17308,7.9996 -19.45637,-2.5687 -8.34526,-6.66691 -21.92491,-15.55625 -31.15894,-24.54415 -11.45614,-11.11143 -26.71445,-27.65503 -32.83698,-46.91425 -5.53012,-15.25925 -5.87546,-23.11099 -0.0976,-26.41934 z"
         id="path4173-5"
         inkscape:connector-curvature="0"
         style="stroke:#ffffff;stroke-width:7.19999981;stroke-miterlimit:4;stroke-dasharray:none;stroke-opacity:1" /><g
         id="g4752"
         transform="translate(-254.81767,53.22352)"><path
           style="stroke:none;stroke-opacity:1"
           inkscape:connector-curvature="0"
           id="path4173"
           d="M 514.01754,58.061014 C 497.4237,93.22023 481.1256,141.41629 504.72728,208.77426 c 21.47847,62.22216 59.30275,115.2106 81.07916,138.96423 0,0 70.6619,85.18687 139.69663,113.38691 69.03474,28.20004 117.28104,24.59723 163.30714,-25.27654 46.0261,-49.87378 50.76886,-98.81108 24.35141,-142.86089 C 887.23802,248.5925 806.25332,209.62668 781.36635,174.07063 755.98554,138.86022 757.02281,132.98381 744.03684,98.66282 731.05087,64.341824 679.20269,-2.3753965 637.96896,-6.6240163 597.22907,-11.218276 538.46376,7.8406336 514.01754,58.061014 Z m 214.56099,81.588136 c 3.30866,-1.58007 9.13578,-2.7156 25.33183,25.67969 10.96199,18.81499 31.15864,31.90207 47.05896,47.26052 12.49309,12.59294 15.55436,22.22255 11.15914,27.50623 -0.64202,1.18513 -6.17308,7.9996 -19.45637,-2.5687 -8.34526,-6.66691 -21.92491,-15.55625 -31.15894,-24.54415 -11.45614,-11.11143 -26.71445,-27.65503 -32.83698,-46.91425 -5.53012,-15.25925 -5.87546,-23.11099 -0.0976,-26.41934 z" /><path
           inkscape:connector-curvature="0"
           id="path4750"
           d="m 801.5644,242.20063 c -1.63606,-0.48191 -10.20112,-6.31754 -19.03345,-12.96807 -23.88458,-17.98447 -40.26153,-35.55326 -48.65182,-52.19248 -7.12047,-14.12097 -10.54287,-30.05218 -7.46503,-34.74956 4.72509,-7.2114 11.88094,-1.43546 25.69199,20.73764 8.26087,13.26252 14.6735,20.22594 34.44586,37.40453 15.13662,13.15096 20.05908,18.30478 23.97075,25.09738 6.02981,10.47073 1.10528,19.63482 -8.9583,16.67056 z"
           style="fill:#ffffff;fill-opacity:1;stroke:none;stroke-width:6.52575636;stroke-linecap:round;stroke-linejoin:bevel;stroke-miterlimit:4;stroke-dasharray:none;stroke-opacity:1" /></g></g></g></svg>